<?xml version="1.0" encoding="utf-8"?>
<!-- Svg Vector Icons : http://www.onlinewebfonts.com/icon -->
<!DOCTYPE svg PUBLIC "-//W3C//DTD SVG 1.1//EN" "http://www.w3.org/Graphics/SVG/1.1/DTD/svg11.dtd">
<svg version="1.1" xmlns="http://www.w3.org/2000/svg" xmlns:xlink="http://www.w3.org/1999/xlink" x="0px" y="0px" viewBox="0 0 256 256" enable-background="new 0 0 256 256" xml:space="preserve">
<metadata> Svg Vector Icons : http://www.onlinewebfonts.com/icon </metadata>
<g><g><g><path fill="#000000" d="M142.8,90.5c-1.7,0.2-3.7,0.7-4.6,0.9c-0.9,0.3-9.8,4.6-19.8,9.7c-12,6.1-18.9,9.2-20.3,9.4c-1.2,0.2-11.3,1.1-22.5,2c-25.8,2.1-32,2.8-38.2,4.3c-8.3,2-22.1,7.5-25,10C11,128,10,132.3,10,137.6c0,6.4,1.2,8.2,5.7,9l1.7,0.3l0,3c0,2,0.3,3.5,0.9,4.3c0.8,1.2,0.8,1.2,7.6,1.2h6.8L32,153c-0.9-3.2-0.9-9,0-12.2c3.3-12.5,16.1-20.5,28.5-17.9c14.2,3,22.6,16.9,18.9,31.2l-0.3,1.3h51.2h51.2l-0.7-2.2c-1-3.3-0.9-9.9,0.3-13.5c3.5-11.4,15.7-19,27.3-17c9.1,1.5,16.9,8.3,19.6,17c1,3.5,1.3,10,0.4,12.8c-0.7,2.5-0.7,2.5,2.1,2.2c3.3-0.3,5.9-1.5,9.7-4.3l2.9-2.3v-5.6c0-3.3,0.2-5.7,0.5-5.9c0.9-0.6,2.4-4,2.4-5.6c0-1.3-0.5-2-2.1-3.7l-2.1-2.2l0.3-7.1l0.3-7.1l-1.3-0.8c-0.9-0.6-3.1-1-6.8-1.5c-6.4-0.7-5.6-0.4-24.7-7.6c-19.2-7.3-24.6-9.1-29.1-10C175.9,90.3,147.5,89.9,142.8,90.5z M179.4,98c1.3,0.5,1.3,0.7,1.1,2.6c-0.1,1.1-1.3,4.6-2.5,7.8l-2.2,5.8h-20.5h-20.5l-2.2-1.5c-1.9-1.3-4.1-3.6-4.1-4.4c0-0.4,6.5-5.2,9.4-6.9c3.5-2.1,6.9-3.4,10.2-3.8C152.4,97,177.7,97.4,179.4,98z M193.8,103.7c4.8,2,8.9,4.1,9.1,4.5c0.3,0.6-0.1,1.3-1.8,3.1l-2.2,2.4h-9.4c-8,0-9.4-0.1-9.2-0.7c0.1-0.4,0.9-3.3,1.8-6.5c1.7-6.5,1.7-6.5,2.5-6.5C184.9,100,189,101.7,193.8,103.7z"/><path fill="#000000" d="M52.3,128.5c-14.6,2.8-20.3,21.1-10,31.7c11,11,29.6,5.1,32-10.2c1.6-10-5.3-19.7-15.3-21.5C55.9,127.9,55.2,127.9,52.3,128.5z M60.7,135.6c11.6,5.2,9.2,22-3.4,23.9c-6.4,0.9-13.2-4.4-14-11.1C42.2,139.1,52.2,131.7,60.7,135.6z"/><path fill="#000000" d="M51.2,140.1c-0.5,0.5-0.5,0.9-0.1,1.8c0.7,1.5-0.1,3.6-1.4,3.6c-1.5,0-2.3,0.6-2.3,1.7c0,1.1,1.4,2,2.3,1.4c0.3-0.1,0.9,0.3,1.3,0.9c0.6,0.9,0.7,1.5,0.3,2.5c-0.6,1.8-0.3,2.5,1,2.5c0.7,0,1.3-0.4,1.6-1.1c0.7-1.5,2.8-1.5,4,0c1.6,2.1,3.4,0.9,2.3-1.5c-0.7-1.5,0.5-3.5,2.1-3.5c0.6,0,1.3-0.3,1.7-0.7c0.8-1-0.2-2.1-1.9-2.1c-1.7,0-2.6-1.8-1.8-3.6c0.4-0.9,0.4-1.3-0.1-1.9c-0.9-1-1.8-0.9-2.5,0.5c-0.4,0.9-0.9,1.2-2.1,1.2c-0.9,0-1.6-0.3-1.8-0.7C53.5,139.8,51.9,139.2,51.2,140.1z"/><path fill="#000000" d="M201,128.5c-5.6,1.1-11.2,5.4-13.6,10.8c-1.1,2.4-1.3,3.3-1.3,7.7c0,4.6,0.1,5.2,1.5,8.1c1.8,3.9,5,7.1,9.1,9.1c2.9,1.5,3.5,1.6,7.9,1.6c4.4,0,5-0.1,7.9-1.6c4.2-2,7.2-5,9.1-9c1.4-2.9,1.5-3.6,1.5-8.2c0-4.4-0.1-5.3-1.3-7.7c-2.6-5.4-8-9.7-13.8-10.8C204.7,127.9,204,127.9,201,128.5z M209.5,135.6c4.3,1.9,7,5.7,7.4,10.4c0.8,8.6-7.4,15.4-15.6,13.1c-5.2-1.5-8.7-5.6-9.2-10.9C191.2,138.9,201.1,131.7,209.5,135.6z"/><path fill="#000000" d="M200,140.1c-0.4,0.5-0.4,1,0,1.8c0.8,1.8-0.1,3.4-2.1,3.8c-1.3,0.2-1.6,0.5-1.6,1.4c0,1.1,1.4,2,2.3,1.5c0.2-0.1,0.8,0.3,1.2,0.9c0.6,1,0.7,1.5,0.3,2.4c-1.1,2.4,1.1,3.6,2.6,1.4c0.5-0.7,1.2-1.1,2-1.1s1.6,0.5,2.2,1.1c1.6,2,3.4,0.9,2.3-1.5c-0.8-1.7,0.2-3.5,2-3.6c1.2-0.1,1.4-0.4,1.4-1.3c0-1-0.2-1.2-1.5-1.3c-1.8-0.2-2.9-2.2-2-3.9c0.4-0.8,0.4-1.2,0-1.7c-0.8-1-1.8-0.8-2.4,0.5c-0.7,1.5-3.4,1.7-4.1,0.3C201.8,139.6,200.7,139.2,200,140.1z"/></g></g></g>
</svg>